<svg width="42" height="42" viewBox="0 0 42 42" fill="none" xmlns="http://www.w3.org/2000/svg">
<path d="M18.0734 22.5511C18.0734 22.7924 18.0013 23.0283 17.8663 23.229C17.7312 23.4296 17.5393 23.586 17.3148 23.6784C17.0902 23.7707 16.8431 23.7949 16.6048 23.7478C16.3664 23.7007 16.1474 23.5845 15.9755 23.4139C15.8037 23.2432 15.6866 23.0258 15.6392 22.7891C15.5918 22.5524 15.6161 22.3071 15.7092 22.0842C15.8022 21.8612 15.9597 21.6706 16.1618 21.5366C16.3639 21.4025 16.6014 21.3309 16.8445 21.3309C17.1704 21.3309 17.483 21.4595 17.7135 21.6883C17.9439 21.9171 18.0734 22.2275 18.0734 22.5511V22.5511ZM24.7094 21.3309C24.4663 21.3309 24.2287 21.4025 24.0266 21.5366C23.8245 21.6706 23.667 21.8612 23.574 22.0842C23.481 22.3071 23.4567 22.5524 23.5041 22.7891C23.5515 23.0258 23.6685 23.2432 23.8404 23.4139C24.0123 23.5845 24.2312 23.7007 24.4696 23.7478C24.708 23.7949 24.9551 23.7707 25.1796 23.6784C25.4042 23.586 25.5961 23.4296 25.7311 23.229C25.8662 23.0283 25.9382 22.7924 25.9382 22.5511C25.9382 22.2275 25.8088 21.9171 25.5783 21.6883C25.3479 21.4595 25.0353 21.3309 24.7094 21.3309ZM34.6752 27.5568C32.6677 29.2895 29.9646 30.6037 26.8581 31.3576C26.4802 31.4502 26.0818 31.4117 25.7291 31.2485C25.3763 31.0853 25.0903 30.8072 24.9186 30.4604L23.675 27.9911C22.7133 28.1063 21.7456 28.164 20.7769 28.1639C19.8083 28.1639 18.8405 28.1062 17.8789 27.991L16.6352 30.4606C16.4635 30.8074 16.1776 31.0854 15.8248 31.2486C15.472 31.4118 15.0736 31.4503 14.6958 31.3578C11.5892 30.6037 8.88624 29.2895 6.87874 27.5569C6.62746 27.3408 6.4442 27.0573 6.35086 26.7405C6.25752 26.4236 6.25806 26.0868 6.35241 25.7703L10.5274 11.9524C10.6006 11.7086 10.7278 11.4842 10.8997 11.2956C11.0717 11.107 11.2839 10.959 11.521 10.8625C12.7408 10.3667 14.0023 9.97878 15.2908 9.70337C15.706 9.6128 16.1402 9.67805 16.5098 9.88652C16.8793 10.095 17.1581 10.4319 17.2923 10.8324L18.0812 13.1824C19.8728 12.9842 21.681 12.9842 23.4726 13.1824L24.2616 10.8324C24.3958 10.432 24.6746 10.0952 25.0441 9.88672C25.4136 9.67826 25.8478 9.61295 26.2629 9.70337C27.5516 9.97882 28.8132 10.3668 30.0331 10.8626C30.2701 10.9591 30.4823 11.1071 30.6542 11.2956C30.8261 11.4842 30.9533 11.7085 31.0264 11.9523L35.2015 25.7704C35.2958 26.0869 35.2963 26.4237 35.203 26.7405C35.1097 27.0572 34.9265 27.3407 34.6752 27.5568V27.5568ZM33.7891 26.1911L29.6138 12.373C29.6033 12.3379 29.5849 12.3055 29.5601 12.2784C29.5352 12.2513 29.5046 12.23 29.4704 12.2162C28.3311 11.7533 27.1529 11.3912 25.9494 11.1343C25.8897 11.1209 25.8272 11.13 25.7738 11.1598C25.7204 11.1895 25.6801 11.2378 25.6604 11.2953L24.9551 13.3972C25.8476 13.5539 26.7282 13.7706 27.5911 14.0458C27.6839 14.0749 27.7699 14.122 27.8443 14.1843C27.9187 14.2466 27.9799 14.3228 28.0245 14.4087C28.069 14.4946 28.096 14.5884 28.1038 14.6847C28.1117 14.781 28.1003 14.8779 28.0703 14.9698C28.0402 15.0617 27.9922 15.1468 27.9289 15.2202C27.8656 15.2935 27.7883 15.3537 27.7014 15.3973C27.6146 15.4409 27.5199 15.467 27.4229 15.474C27.3258 15.4811 27.2284 15.469 27.136 15.4385C25.2265 14.8232 23.0275 14.498 20.7769 14.498C18.5266 14.498 16.3278 14.8232 14.4178 15.4384C14.3255 15.4689 14.228 15.481 14.131 15.4739C14.0339 15.4668 13.9393 15.4408 13.8524 15.3972C13.7656 15.3536 13.6883 15.2934 13.625 15.22C13.5617 15.1467 13.5136 15.0616 13.4836 14.9697C13.4536 14.8778 13.4422 14.7809 13.45 14.6846C13.4579 14.5883 13.4849 14.4945 13.5294 14.4086C13.5739 14.3227 13.6352 14.2464 13.7095 14.1841C13.7839 14.1219 13.87 14.0748 13.9628 14.0457C14.8257 13.7705 15.7064 13.5538 16.5988 13.3972L15.8933 11.2954C15.8736 11.2379 15.8332 11.1896 15.7798 11.1599C15.7265 11.1301 15.6639 11.121 15.6042 11.1343C14.4008 11.3912 13.2227 11.7532 12.0834 12.2161C12.0492 12.2299 12.0185 12.2512 11.9937 12.2784C11.9688 12.3056 11.9504 12.3379 11.9398 12.3731L7.76489 26.191C7.75178 26.2376 7.75247 26.287 7.76687 26.3333C7.78127 26.3795 7.80878 26.4207 7.84612 26.4518C9.67703 28.032 12.1668 29.2365 15.046 29.9354C15.0992 29.947 15.1548 29.9405 15.2038 29.917C15.2529 29.8934 15.2925 29.8542 15.3164 29.8056L16.3488 27.7552C15.5417 27.6034 14.7448 27.402 13.9629 27.152C13.8701 27.1229 13.784 27.0758 13.7097 27.0135C13.6353 26.9512 13.5741 26.8749 13.5295 26.789C13.485 26.7031 13.458 26.6093 13.4501 26.5131C13.4423 26.4168 13.4537 26.3199 13.4837 26.228C13.5137 26.1361 13.5618 26.051 13.6251 25.9776C13.6884 25.9043 13.7657 25.844 13.8525 25.8005C13.9394 25.7569 14.0341 25.7308 14.1311 25.7238C14.2281 25.7167 14.3256 25.7288 14.4179 25.7593C16.3274 26.3745 18.5264 26.6997 20.7769 26.6997C23.0275 26.6997 25.2264 26.3745 27.1358 25.7593C27.3216 25.6999 27.5236 25.7162 27.6974 25.8045C27.8712 25.8928 28.0026 26.0459 28.0629 26.2302C28.1231 26.4146 28.1073 26.6152 28.0188 26.788C27.9304 26.9608 27.7765 27.0917 27.591 27.152C26.809 27.4019 26.0122 27.6034 25.2051 27.7552L26.2376 29.8056C26.2615 29.8542 26.3011 29.8935 26.3501 29.917C26.3991 29.9406 26.4547 29.9471 26.508 29.9355C29.3872 29.2365 31.877 28.032 33.7079 26.4518C33.7451 26.4207 33.7726 26.3795 33.787 26.3333C33.8013 26.2871 33.802 26.2377 33.789 26.1911H33.7891Z" fill="white"/>
</svg>
