<svg width="24" height="18" viewBox="0 0 24 18" fill="none" xmlns="http://www.w3.org/2000/svg">
<path d="M10.0822 10.5706C10.0822 10.7586 10.0261 10.9424 9.92085 11.0987C9.81565 11.2551 9.66611 11.3769 9.49115 11.4489C9.3162 11.5208 9.12368 11.5396 8.93795 11.503C8.75222 11.4663 8.58162 11.3757 8.44771 11.2428C8.31381 11.1098 8.22262 10.9404 8.18568 10.756C8.14873 10.5716 8.16769 10.3805 8.24016 10.2068C8.31263 10.033 8.43535 9.88456 8.59281 9.7801C8.75026 9.67564 8.93538 9.61988 9.12475 9.61988C9.37868 9.61988 9.62222 9.72004 9.80178 9.89833C9.98134 10.0766 10.0822 10.3184 10.0822 10.5706ZM15.2525 9.61988C15.0632 9.61988 14.8781 9.67564 14.7206 9.7801C14.5632 9.88456 14.4404 10.033 14.368 10.2068C14.2955 10.3805 14.2765 10.5716 14.3135 10.756C14.3504 10.9404 14.4416 11.1098 14.5755 11.2428C14.7094 11.3757 14.88 11.4663 15.0658 11.503C15.2515 11.5396 15.444 11.5208 15.619 11.4489C15.7939 11.3769 15.9434 11.2551 16.0487 11.0987C16.1539 10.9424 16.21 10.7586 16.21 10.5706C16.21 10.3184 16.1091 10.0766 15.9296 9.89833C15.75 9.72004 15.5065 9.61988 15.2525 9.61988ZM23.0173 14.4707C21.4532 15.8207 19.3471 16.8446 16.9267 17.4321C16.6323 17.5042 16.3219 17.4742 16.047 17.347C15.7722 17.2199 15.5494 17.0032 15.4156 16.733L14.4466 14.8091C13.6974 14.8988 12.9434 14.9437 12.1886 14.9437C11.4339 14.9437 10.6799 14.8987 9.93065 14.809L8.96169 16.7331C8.82793 17.0033 8.60513 17.22 8.33026 17.3471C8.0554 17.4743 7.74501 17.5043 7.45061 17.4322C5.03013 16.8446 2.92418 15.8207 1.36006 14.4708C1.16428 14.3024 1.02149 14.0815 0.948767 13.8347C0.876045 13.5878 0.876463 13.3254 0.949972 13.0787L4.20288 2.31271C4.2599 2.12278 4.35902 1.94793 4.49297 1.801C4.62693 1.65406 4.79231 1.53876 4.97699 1.46357C5.92737 1.07723 6.91027 0.775007 7.91422 0.560425C8.23768 0.489863 8.576 0.540696 8.86395 0.703126C9.1519 0.865555 9.36909 1.12808 9.47365 1.44008L10.0883 3.27109C11.4842 3.11666 12.8931 3.11666 14.289 3.27109L14.9036 1.44008C15.0083 1.12815 15.2255 0.865693 15.5134 0.703277C15.8013 0.540861 16.1395 0.489976 16.463 0.560425C17.467 0.77504 18.45 1.07729 19.4005 1.46366C19.5851 1.53883 19.7505 1.65409 19.8844 1.801C20.0183 1.9479 20.1174 2.12272 20.1744 2.31261L23.4273 13.0788C23.5008 13.3254 23.5012 13.5878 23.4285 13.8346C23.3558 14.0815 23.2131 14.3023 23.0173 14.4707ZM22.3269 13.4066L19.0738 2.64041C19.0656 2.61305 19.0512 2.58787 19.0319 2.56673C19.0126 2.54559 18.9887 2.52902 18.9621 2.51825C18.0744 2.15758 17.1564 1.87549 16.2187 1.67528C16.1722 1.66491 16.1235 1.67199 16.0819 1.69516C16.0403 1.71833 16.0089 1.75594 15.9935 1.80077L15.444 3.4384C16.1394 3.56049 16.8255 3.72934 17.4978 3.94378C17.5701 3.96646 17.6372 4.00313 17.6951 4.05166C17.7531 4.10019 17.8008 4.15963 17.8355 4.22655C17.8702 4.29348 17.8912 4.36656 17.8973 4.44159C17.9034 4.51661 17.8945 4.5921 17.8712 4.6637C17.8478 4.7353 17.8103 4.80159 17.761 4.85876C17.7117 4.91593 17.6515 4.96284 17.5838 4.99678C17.5161 5.03073 17.4424 5.05104 17.3668 5.05655C17.2912 5.06206 17.2152 5.05266 17.1433 5.02888C15.6555 4.54946 13.9422 4.2961 12.1886 4.2961C10.4353 4.2961 8.72213 4.54946 7.23403 5.02879C7.1621 5.05256 7.08614 5.06197 7.01054 5.05646C6.93493 5.05095 6.86117 5.03063 6.7935 4.99669C6.72584 4.96274 6.66561 4.91583 6.61629 4.85867C6.56697 4.8015 6.52954 4.7352 6.50614 4.66361C6.48275 4.59201 6.47386 4.51652 6.47998 4.44149C6.48611 4.36646 6.50713 4.29338 6.54184 4.22646C6.57654 4.15954 6.62424 4.1001 6.68219 4.05156C6.74014 4.00303 6.80719 3.96637 6.87948 3.94369C7.55179 3.72928 8.23799 3.56047 8.93335 3.4384L8.38367 1.80087C8.36831 1.75604 8.33682 1.71842 8.29524 1.69524C8.25365 1.67206 8.20491 1.66496 8.15837 1.67528C7.22078 1.8755 6.30283 2.15755 5.41522 2.51815C5.38855 2.52895 5.36465 2.54554 5.34528 2.56672C5.32591 2.58789 5.31156 2.6131 5.3033 2.6405L2.05049 13.4065C2.04027 13.4429 2.04081 13.4813 2.05203 13.5174C2.06326 13.5534 2.08469 13.5855 2.11378 13.6098C3.54031 14.8409 5.48014 15.7794 7.72349 16.324C7.76494 16.333 7.80825 16.3279 7.84645 16.3096C7.88465 16.2912 7.91554 16.2607 7.93413 16.2228L8.7385 14.6253C8.10965 14.507 7.48881 14.35 6.87958 14.1553C6.80729 14.1326 6.74024 14.0959 6.68229 14.0474C6.62434 13.9989 6.57664 13.9394 6.54193 13.8725C6.50723 13.8056 6.4862 13.7325 6.48008 13.6575C6.47395 13.5824 6.48284 13.507 6.50624 13.4354C6.52963 13.3638 6.56707 13.2975 6.61639 13.2403C6.66571 13.1831 6.72593 13.1362 6.7936 13.1023C6.86126 13.0683 6.93502 13.048 7.01063 13.0425C7.08624 13.037 7.1622 13.0464 7.23413 13.0702C8.72184 13.5495 10.4351 13.8029 12.1886 13.8029C13.9422 13.8029 15.6554 13.5495 17.1431 13.0702C17.2879 13.0239 17.4452 13.0366 17.5806 13.1054C17.716 13.1742 17.8184 13.2935 17.8654 13.4371C17.9123 13.5808 17.9 13.737 17.8311 13.8717C17.7621 14.0063 17.6423 14.1083 17.4977 14.1553C16.8885 14.35 16.2676 14.507 15.6388 14.6253L16.4433 16.2228C16.4618 16.2607 16.4927 16.2913 16.5309 16.3096C16.5691 16.328 16.6124 16.3331 16.6539 16.324C18.8973 15.7794 20.8371 14.8409 22.2636 13.6098C22.2927 13.5855 22.314 13.5534 22.3252 13.5174C22.3364 13.4814 22.337 13.4429 22.3268 13.4066H22.3269Z" fill="white"/>
</svg>
