<svg width="42" height="42" viewBox="0 0 42 42" fill="none" xmlns="http://www.w3.org/2000/svg">
<path d="M32.3735 20.5354C32.3735 18.1942 31.6793 15.9055 30.3786 13.9588C29.078 12.0121 27.2293 10.4948 25.0663 9.59868C22.9034 8.70259 20.5233 8.46798 18.227 8.92452C15.9307 9.38106 13.8213 10.5082 12.1656 12.1635C10.5099 13.8188 9.38221 15.9279 8.9251 18.2241C8.46799 20.5203 8.702 22.9004 9.59755 25.0636C10.4931 27.2268 12.01 29.0759 13.9563 30.377C15.9027 31.6782 18.1912 32.3729 20.5324 32.3735H20.5354L20.5384 32.3734C23.6764 32.3691 26.6847 31.1204 28.9033 28.9012C31.122 26.682 32.37 23.6735 32.3735 20.5354V20.5354ZM21.446 30.5104V23.2674H24.1779C24.4194 23.2674 24.651 23.1714 24.8218 23.0007C24.9926 22.8299 25.0885 22.5983 25.0885 22.3568C25.0885 22.1153 24.9926 21.8836 24.8218 21.7129C24.651 21.5421 24.4194 21.4461 24.1779 21.4461H21.446V18.7143C21.4466 18.2314 21.6386 17.7685 21.9801 17.427C22.3215 17.0856 22.7844 16.8936 23.2673 16.893H25.0885C25.33 16.893 25.5617 16.7971 25.7324 16.6263C25.9032 16.4555 25.9992 16.2239 25.9992 15.9824C25.9992 15.7409 25.9032 15.5093 25.7324 15.3385C25.5617 15.1677 25.33 15.0718 25.0885 15.0718H23.2673C22.3016 15.0728 21.3757 15.457 20.6928 16.1398C20.01 16.8227 19.6259 17.7485 19.6248 18.7143V21.4461H16.8929C16.6514 21.4461 16.4198 21.5421 16.249 21.7129C16.0782 21.8836 15.9823 22.1153 15.9823 22.3568C15.9823 22.5983 16.0782 22.8299 16.249 23.0007C16.4198 23.1714 16.6514 23.2674 16.8929 23.2674H19.6248V30.5104C17.0577 30.276 14.6798 29.0611 12.9857 27.1183C11.2915 25.1754 10.4116 22.6543 10.5289 20.0792C10.6462 17.5041 11.7517 15.0734 13.6154 13.2926C15.4792 11.5119 17.9577 10.5181 20.5354 10.5181C23.1131 10.5181 25.5916 11.5119 27.4554 13.2926C29.3191 15.0734 30.4246 17.5041 30.5419 20.0792C30.6592 22.6543 29.7793 25.1754 28.0851 27.1183C26.391 29.0611 24.0131 30.276 21.446 30.5104V30.5104Z" fill="white"/>
</svg>
