<svg width="20" height="20" viewBox="0 0 20 20" fill="none" xmlns="http://www.w3.org/2000/svg">
<path d="M19.2244 10C19.2244 8.17587 18.6835 6.39269 17.6701 4.87594C16.6567 3.35919 15.2163 2.17699 13.5311 1.47881C11.8458 0.780638 9.99142 0.597847 8.2023 0.953552C6.41317 1.30926 4.76969 2.18748 3.47967 3.47719C2.18965 4.76689 1.31101 6.41015 0.954857 8.19918C0.598705 9.98822 0.781032 11.8427 1.47879 13.5281C2.17654 15.2135 3.35838 16.6542 4.87488 17.668C6.39138 18.6817 8.17442 19.2231 9.99856 19.2235H10.0009L10.0032 19.2234C12.4481 19.2201 14.792 18.2472 16.5206 16.5181C18.2493 14.7891 19.2216 12.445 19.2244 10ZM10.7104 17.7719V12.1286H12.8389C13.027 12.1286 13.2075 12.0539 13.3406 11.9208C13.4736 11.7877 13.5484 11.6073 13.5484 11.4191C13.5484 11.2309 13.4736 11.0505 13.3406 10.9174C13.2075 10.7844 13.027 10.7096 12.8389 10.7096H10.7104V8.5811C10.7108 8.20489 10.8604 7.8442 11.1265 7.57818C11.3925 7.31216 11.7532 7.16252 12.1294 7.1621H13.5484C13.7365 7.1621 13.917 7.08735 14.0501 6.95429C14.1831 6.82123 14.2579 6.64077 14.2579 6.4526C14.2579 6.26442 14.1831 6.08396 14.0501 5.9509C13.917 5.81784 13.7365 5.74309 13.5484 5.74309H12.1294C11.3769 5.74394 10.6556 6.04321 10.1235 6.57526C9.59149 7.10731 9.29221 7.82867 9.29137 8.5811V10.7096H7.16286C6.97469 10.7096 6.79423 10.7844 6.66117 10.9174C6.52811 11.0505 6.45336 11.2309 6.45336 11.4191C6.45336 11.6073 6.52811 11.7877 6.66117 11.9208C6.79423 12.0539 6.97469 12.1286 7.16286 12.1286H9.29137V17.7719C7.29128 17.5893 5.43856 16.6427 4.1186 15.129C2.79864 13.6152 2.11305 11.6509 2.20443 9.64458C2.29582 7.63825 3.15715 5.74438 4.60926 4.35691C6.06137 2.96944 7.99246 2.19518 10.0009 2.19518C12.0093 2.19518 13.9404 2.96944 15.3925 4.35691C16.8446 5.74438 17.7059 7.63825 17.7973 9.64458C17.8887 11.6509 17.2031 13.6152 15.8831 15.129C14.5632 16.6427 12.7105 17.5893 10.7104 17.7719Z" fill="white"/>
</svg>
