<svg width="110" height="155" viewBox="0 0 110 155" fill="none" xmlns="http://www.w3.org/2000/svg">
<rect x="41.4375" y="128.106" width="26.8934" height="26.8934" fill="#293430"/>
<rect x="41.4375" y="86.9756" width="26.8934" height="26.8934" fill="#293430"/>
<rect x="68.3311" y="74.3198" width="26.8934" height="26.8934" fill="#293430"/>
<rect x="68.3311" y="20.5327" width="26.8934" height="26.8934" fill="#293430"/>
<rect x="27.1992" y="20.5327" width="26.8934" height="26.8934" fill="#293430"/>
<rect x="54.0928" y="4.71338" width="26.8934" height="26.8934" fill="#293430"/>
<rect x="39.8555" y="4.71338" width="26.8934" height="26.8934" fill="#293430"/>
<rect x="82.5684" y="47.4268" width="26.8934" height="26.8934" fill="#293430"/>
<rect x="82.5684" y="33.189" width="26.8934" height="26.8934" fill="#293430"/>
<rect x="12.9619" y="33.189" width="26.8934" height="26.8934" fill="#293430"/>
<rect x="28.4756" y="123.393" width="26.8934" height="26.8934" fill="#DFFECF"/>
<rect x="28.4756" y="82.2622" width="26.8934" height="26.8934" fill="#DFFECF"/>
<rect x="55.3691" y="69.6064" width="26.8934" height="26.8934" fill="#DFFECF"/>
<rect x="55.3691" y="15.8193" width="26.8934" height="26.8934" fill="#DFFECF"/>
<rect x="14.2373" y="15.8193" width="26.8934" height="26.8934" fill="#DFFECF"/>
<rect x="41.1309" width="26.8934" height="26.8934" fill="#DFFECF"/>
<rect x="26.8936" width="26.8934" height="26.8934" fill="#DFFECF"/>
<rect x="69.6064" y="42.7134" width="26.8934" height="26.8934" fill="#DFFECF"/>
<rect x="69.6064" y="28.4756" width="26.8934" height="26.8934" fill="#DFFECF"/>
<rect y="28.4756" width="26.8934" height="26.8934" fill="#DFFECF"/>
</svg>
