<svg width="1352" height="864" viewBox="0 0 1352 864" fill="none" xmlns="http://www.w3.org/2000/svg">
<g opacity="0.5">
<path d="M0 427.011C181.901 446.597 348.285 492.812 469.309 616.853L550.221 417.639L519.228 578.929L596.703 823.938C450.074 662.858 285.219 548.259 88.0533 515.99L130.102 565.138C142.42 656.095 173.581 717.239 227.597 742.198C198.372 692.953 177.468 645.054 185.493 601.785L169.456 562.009L224.749 582.984C213.581 643.665 226.699 693.668 277.531 727.088C335.531 751.697 382.546 733.766 423.893 693.85C472.578 722.121 511.273 756.65 536.499 799.61C404.868 834.012 284.097 831.5 176.822 783.124C109.042 744.499 60.0912 695.155 31.175 634.377C50.0596 654.72 68.6636 673.633 84.672 679.933L0 427.011Z" fill="#848E8B"/>
<path d="M1283.8 0C1044.73 124.209 841.176 276.647 741.506 511.596L523.898 281.571L652.723 486.285L677.543 863.893C792.506 564.405 957.36 318.962 1210.59 169.19L1179.19 259.109C1210.96 390.502 1200.94 491.07 1140.19 554.205C1153.92 471.007 1156.97 394.093 1122.82 339.025L1123.55 275.875L1058.91 334.241C1106.71 411.519 1115.47 487.141 1063.61 560.196C997.206 625.002 923.113 625.549 845.021 592.915C793.362 657.748 758.749 725.822 747.118 798.274C946.122 775.04 1110.47 706.966 1231.76 583.178C1304.09 493.918 1344.85 400.014 1352 301.157C1336.97 339.179 1321.58 375.082 1302.98 392.297L1283.8 0Z" fill="#848E8B"/>
<path d="M265.068 599.3C306.121 618.087 346.036 640.1 384.928 665.004C357.106 696.81 325.342 707.206 287.685 685.432C261.575 664.625 254.181 635.849 265.068 599.3Z" fill="#848E8B"/>
<path d="M1011.74 377.141C965.47 424.886 922.482 476.433 882.439 531.431C937.648 560.179 986.641 556.924 1026.67 506.892C1051.38 464.381 1046.24 421.476 1011.74 377.141Z" fill="#848E8B"/>
<path d="M265.068 599.3C306.121 618.087 346.036 640.1 384.928 665.004C357.106 696.81 325.342 707.206 287.685 685.432C261.575 664.625 254.181 635.849 265.068 599.3Z" fill="#848E8B"/>
<path d="M315.201 623.625C311.161 627.399 308.537 632.66 308.537 638.623C308.537 650.17 317.895 659.514 329.428 659.514C339.389 659.514 347.695 652.541 349.786 643.225C349.842 643.014 318.919 626.262 315.201 623.625Z" fill="#848E8B"/>
<path d="M1011.74 377.141C965.47 424.886 922.482 476.433 882.439 531.431C937.648 560.179 986.641 556.924 1026.67 506.892C1051.38 464.381 1046.24 421.476 1011.74 377.141Z" fill="#848E8B"/>
<path d="M944.945 448.724C942.448 452.568 939.501 456.104 936.288 459.401C933.735 463.091 930.817 466.528 927.646 469.713C926.846 470.835 926.046 471.972 925.177 473.052C923.409 475.648 921.487 478.117 919.41 480.474C923.226 486.17 929.54 490.001 936.92 490.001C948.761 490.001 958.358 480.404 958.358 468.562C958.358 459.583 952.802 451.909 944.945 448.724Z" fill="#848E8B"/>
</g>
<path d="M310.103 467.423L312.608 474.395L305.636 476.901L303.13 469.929L310.103 467.423L305.092 453.478L291.147 458.489L293.652 465.462L286.68 467.967L284.174 460.995L291.147 458.489L288.641 451.517L309.558 444L317.075 464.917L310.103 467.423ZM289.186 474.94L282.213 477.445L279.708 470.473L286.68 467.967L289.186 474.94ZM282.213 477.445L284.719 484.418L277.746 486.923L275.241 479.951L282.213 477.445ZM273.28 496.401L270.774 489.429L277.746 486.923L280.252 493.896L273.28 496.401ZM268.813 505.879L266.307 498.907L273.28 496.401L275.785 503.374L268.813 505.879ZM264.346 515.357L261.84 508.385L268.813 505.879L271.318 512.852L264.346 515.357ZM259.879 524.835L257.374 517.863L264.346 515.357L266.852 522.33L259.879 524.835ZM257.918 541.286L252.907 527.341L259.879 524.835L264.89 538.78L257.918 541.286ZM260.424 548.258L267.396 545.753L269.902 552.725L262.929 555.231L265.435 562.203L258.462 564.709L260.968 571.681L253.996 574.187L259.007 588.131L238.09 595.648L230.573 574.731L244.518 569.72L242.012 562.747L248.984 560.242L246.479 553.269L253.451 550.764L250.946 543.791L257.918 541.286L260.424 548.258ZM247.023 576.692L240.051 579.198L242.556 586.17L249.529 583.665L247.023 576.692ZM264.89 538.78L278.835 533.769L281.341 540.741L267.396 545.753L264.89 538.78ZM283.302 524.291L285.808 531.263L278.835 533.769L276.33 526.797L283.302 524.291ZM287.769 514.813L290.274 521.785L283.302 524.291L280.796 517.319L287.769 514.813ZM292.236 505.335L294.741 512.307L287.769 514.813L285.263 507.841L292.236 505.335ZM296.702 495.857L299.208 502.829L292.236 505.335L289.73 498.363L296.702 495.857ZM301.169 486.379L303.675 493.351L296.702 495.857L294.197 488.885L301.169 486.379ZM288.313 538.236L290.819 545.208L283.846 547.714L281.341 540.741L288.313 538.236ZM302.802 556.647L288.858 561.659L286.352 554.686L293.324 552.181L290.819 545.208L297.791 542.703L302.802 556.647ZM286.352 554.686L272.407 559.697L269.902 552.725L283.846 547.714L286.352 554.686ZM243.973 546.297L238.962 532.352L245.934 529.847L250.946 543.791L243.973 546.297ZM243.429 522.874L250.401 520.369L252.907 527.341L245.934 529.847L243.429 522.874ZM238.962 532.352L231.99 534.858L226.978 520.913L240.923 515.902L243.429 522.874L236.456 525.38L238.962 532.352ZM308.142 483.873L301.169 486.379L298.664 479.407L305.636 476.901L308.142 483.873Z" fill="#C4C4C4"/>
<path d="M714.375 518.25V483.75H723V518.25H714.375ZM705.75 475.125H714.375V483.75H705.75V475.125ZM697.125 466.5H688.5V457.875H679.875V449.25H697.125V440.625H714.375V457.875H705.75V475.125H697.125V466.5ZM671.25 440.625H679.875V449.25H671.25V440.625ZM662.625 457.875H636.75V449.25H662.625V457.875ZM671.25 466.5H662.625V457.875H671.25V466.5ZM679.875 475.125H688.5V483.75H679.875V492.375H671.25V501H662.625V509.625H654V518.25H645.375V526.875H636.75V535.5H628.125V544.125H619.5V552.75H610.875V570H585V544.125H602.25V535.5H610.875V526.875H619.5V518.25H628.125V509.625H636.75V501H645.375V492.375H654V483.75H662.625V475.125H671.25V466.5H679.875V475.125ZM602.25 552.75H593.625V561.375H602.25V552.75ZM697.125 492.375H688.5V483.75H697.125V492.375ZM705.75 518.25H697.125V492.375H705.75V518.25ZM714.375 526.875H705.75V518.25H714.375V526.875ZM628.125 449.25V440.625H636.75V449.25H628.125ZM636.75 432H671.25V440.625H636.75V432Z" fill="#BFBFBF"/>
<path d="M397.36 771.32L390.779 774.649L387.393 767.956L393.974 764.628L390.589 757.935L397.17 754.606L400.555 761.299L430.17 746.319L426.785 739.627L443.237 731.305L439.852 724.612L446.433 721.283L449.818 727.976L443.237 731.305L446.623 737.997L453.204 734.669L456.589 741.361L436.846 751.347L440.231 758.04L400.745 778.013L397.36 771.32ZM449.629 711.262L453.014 717.955L446.433 721.283L443.048 714.591L449.629 711.262ZM446.244 704.57L452.825 701.241L456.21 707.933L449.629 711.262L446.244 704.57ZM456.021 691.219L445.865 671.142L452.446 667.813L438.905 641.043L432.324 644.371L428.939 637.679L435.52 634.35L432.135 627.658L438.716 624.329L442.101 631.021L448.682 627.693L468.993 667.848L462.412 671.177L472.568 691.254L465.987 694.583L462.602 687.891L456.021 691.219L459.406 697.912L452.825 701.241L449.44 694.548L456.021 691.219ZM429.128 654.393L425.743 647.7L432.324 644.371L435.709 651.064L429.128 654.393ZM425.933 664.414L422.547 657.722L429.128 654.393L432.514 661.085L425.933 664.414ZM422.737 674.436L419.352 667.743L425.933 664.414L429.318 671.107L422.737 674.436ZM419.541 684.457L416.156 677.764L422.737 674.436L426.122 681.128L419.541 684.457ZM416.345 694.478L412.96 687.786L419.541 684.457L422.926 691.149L416.345 694.478ZM413.149 704.5L409.764 697.807L416.345 694.478L419.73 701.171L413.149 704.5ZM409.954 714.521L406.568 707.828L413.149 704.5L416.535 711.192L409.954 714.521ZM406.758 724.542L403.372 717.85L409.954 714.521L413.339 721.213L406.758 724.542ZM403.562 734.564L400.177 727.871L406.758 724.542L410.143 731.235L403.562 734.564ZM400.366 744.585L396.981 737.892L403.562 734.564L406.947 741.256L400.366 744.585ZM397.17 754.606L393.785 747.914L400.366 744.585L403.751 751.278L397.17 754.606ZM469.372 701.276L462.791 704.605L459.406 697.912L465.987 694.583L469.372 701.276ZM462.791 704.605L466.176 711.297L459.595 714.626L456.21 707.933L462.791 704.605ZM462.98 721.318L456.399 724.647L453.014 717.955L459.595 714.626L462.98 721.318ZM459.785 731.34L453.204 734.669L449.818 727.976L456.399 724.647L459.785 731.34Z" fill="#BFBFBF"/>
</svg>
