<svg width="192" height="128" viewBox="0 0 192 128" fill="none" xmlns="http://www.w3.org/2000/svg">
<path d="M183.028 43.5241L182.272 13.5111L181.612 0L169.624 6.26741C162.596 9.94135 156.383 13.4917 150.637 17.1233C138.4 24.8525 128.392 32.8554 120.07 41.5874C113.747 48.1769 108.248 55.5103 103.695 63.4262L98.6261 58.068L93.6122 52.7716L90.5385 49.5232L78.671 37.4544L66.6341 75.4402C65.2217 74.4163 65.1793 74.4622 63.6857 73.5318C58.6948 70.4537 53.4071 67.885 47.9025 65.8643C38.2224 62.2698 26.9428 59.8141 13.4176 58.3576L0 56.9134C0.681471 59.5804 1.4265 62.2975 2.23509 65.0646C4.3872 72.3983 6.77762 79.2413 9.27929 85.5793L5.18518 88.0686C5.81306 90.3613 6.61152 92.6038 7.57386 94.7774C13.3999 107.927 23.9044 115.485 30.4508 119.282L30.8039 119.485L31.1764 119.662C39.6507 123.484 48.9617 125.422 58.8466 125.422C65.8379 125.422 73.2793 124.448 80.9803 122.527L94.0695 128L107.89 121.515C116.231 120.805 124.469 119.184 132.458 116.682C136.67 115.359 143.365 113.223 151.124 108.931C157.746 105.268 168.945 98.9139 177.862 86.0295C185.63 74.8082 187.939 64.0159 189.294 57.3654C190.697 50.4631 191.27 43.4176 190.999 36.3792L183.028 43.5241Z" fill="#202824"/>
<path d="M12.4922 66.9589C35.3797 69.4306 56.3164 75.2372 71.5471 90.8475L81.7268 65.7778L77.8286 86.0807L87.5758 116.911C69.1266 96.64 48.3824 82.2196 23.5723 78.1608L28.8687 84.34C30.4188 95.7855 34.3416 103.481 41.1369 106.62C37.4594 100.425 34.8289 94.3961 35.8405 88.9514L33.8208 83.948L40.7785 86.5874C39.3661 94.2231 41.0239 100.515 47.422 104.721C54.7187 107.819 60.6347 105.561 65.8376 100.538C71.9638 104.096 76.8329 108.44 80.0072 113.846C63.4436 118.177 48.2464 117.859 34.7477 111.772C26.2205 106.911 20.059 100.702 16.4204 93.0579C18.7967 95.6178 21.1377 98.0012 23.1521 98.7903L12.4922 66.9589Z" fill="white"/>
<path d="M163.621 89.7176C164.804 88.6477 166.005 87.5637 167.089 86.3932C168.473 84.8961 169.654 83.1359 170.819 81.4658C172.969 78.3967 174.874 75.1636 176.518 71.7963C179.23 66.2452 181.035 60.2955 181.864 54.1734C181.313 55.4887 180.734 56.7916 180.09 58.0575C179.207 59.7982 178.195 61.5425 176.769 62.8984C176.706 62.9577 176.628 62.9977 176.543 63.0134C176.458 63.0292 176.371 63.0201 176.291 62.9873C176.212 62.9544 176.143 62.8992 176.094 62.8283C176.045 62.7574 176.018 62.6738 176.015 62.5876L175.718 56.518C175.284 47.6541 174.85 38.7891 174.417 29.9229C174.156 24.5936 173.895 19.2631 173.635 13.9313C167.382 17.201 161.227 20.6648 155.26 24.4341C144.805 31.0387 134.885 38.5949 126.331 47.5617C117.901 56.3891 110.972 66.5741 106.184 77.8219C106.072 78.0849 105.666 78.0991 105.49 77.9119L102.104 74.3315L87.3302 58.7142L81.1846 52.219L82.5669 54.4153L88.4477 63.7599L93.5482 71.8652C94.0495 72.6596 94.9746 73.6448 95.0859 74.6052C95.2624 76.1394 95.2889 77.7054 95.3895 79.2448L95.988 88.3264C96.4706 95.6802 96.9537 103.036 97.4375 110.395C97.6458 113.573 97.8547 116.75 98.0642 119.928C100.99 112.471 104.215 105.13 107.834 97.9818C114.437 84.9367 122.368 72.5131 131.986 61.4754C141.357 50.7219 152.328 41.4126 164.605 34.1354C164.923 33.9465 165.383 34.2625 165.253 34.6332C164.47 36.8777 163.687 39.1222 162.903 41.3667L161.681 44.8659C161.58 45.1554 161.385 45.5103 161.349 45.8157C161.28 46.4107 161.676 47.3005 161.812 47.9343C162.839 52.6569 163.535 57.4872 163.538 62.3281C163.547 69.9373 161.651 77.6471 156.281 83.2807C155.95 83.6338 155.477 83.2542 155.543 82.8499C156.162 79.0771 156.648 75.269 156.734 71.4415C156.801 68.4119 156.627 65.3506 155.931 62.3917C155.613 61.0025 155.162 59.6469 154.586 58.3435C154.292 57.6906 153.962 57.0546 153.597 56.4385C153.467 56.2508 153.381 56.0368 153.343 55.8118C153.276 55.3086 153.355 54.7401 153.36 54.2335L153.39 51.5676C153.401 50.6954 153.411 49.8221 153.42 48.9476L146.306 55.3739C148.742 59.408 150.642 63.8376 151.099 68.5655C151.465 72.5181 150.743 76.4954 149.012 80.0675C148.48 81.1724 147.87 82.2379 147.187 83.256C146.592 84.1493 145.841 84.8184 145.022 85.5087C143.54 86.7727 141.912 87.856 140.174 88.736C133.358 92.1275 125.8 91.1494 118.967 88.3705C113.223 95.6602 108.687 103.976 107.042 113.175C114.776 112.238 122.449 110.723 129.894 108.409C142.28 104.57 153.97 98.439 163.621 89.7176Z" fill="white"/>
<path d="M45.8478 88.6371C51.0628 91.0375 56.1027 93.8014 60.9302 96.9083C57.4293 100.911 53.434 102.219 48.6937 99.4789C45.4082 96.8589 44.4778 93.2379 45.8478 88.6371Z" fill="#65C981"/>
<path d="M139.804 60.6827C133.932 66.7671 128.495 73.2565 123.533 80.1028C130.48 83.722 136.645 83.3107 141.682 77.015C144.789 71.6621 144.145 66.2616 139.804 60.6827Z" fill="#65C981"/>
<path d="M12.4922 66.9589C35.3797 69.4306 56.3164 75.2372 71.5471 90.8475L81.7268 65.7778L77.8286 86.0807L87.5758 116.911C69.1266 96.64 48.3824 82.2196 23.5723 78.1608L28.8687 84.34C30.4188 95.7855 34.3416 103.481 41.1369 106.62C37.4594 100.425 34.8289 94.3961 35.8405 88.9514L33.8208 83.948L40.7785 86.5874C39.3661 94.2231 41.0239 100.515 47.422 104.721C54.7187 107.819 60.6347 105.561 65.8376 100.538C71.9638 104.096 76.8329 108.44 80.0072 113.846C63.4436 118.177 48.2464 117.859 34.7477 111.772C26.2205 106.911 20.059 100.702 16.4204 93.0579C18.7967 95.6178 21.1377 98.0012 23.1521 98.7903L12.4922 66.9589Z" fill="white"/>
<path d="M163.621 89.7176C164.804 88.6477 166.005 87.5637 167.089 86.3932C168.473 84.8961 169.654 83.1359 170.819 81.4658C172.969 78.3967 174.874 75.1636 176.518 71.7963C179.23 66.2452 181.035 60.2955 181.864 54.1734C181.313 55.4887 180.734 56.7916 180.09 58.0575C179.207 59.7982 178.195 61.5425 176.769 62.8984C176.706 62.9577 176.628 62.9977 176.543 63.0134C176.458 63.0292 176.371 63.0201 176.291 62.9873C176.212 62.9544 176.143 62.8992 176.094 62.8283C176.045 62.7574 176.018 62.6738 176.015 62.5876L175.718 56.518C175.284 47.6541 174.85 38.7891 174.417 29.9229C174.156 24.5936 173.895 19.2631 173.635 13.9313C167.382 17.201 161.227 20.6648 155.26 24.4341C144.805 31.0387 134.885 38.5949 126.331 47.5617C117.901 56.3891 110.972 66.5741 106.184 77.8219C106.072 78.0849 105.666 78.0991 105.49 77.9119L102.104 74.3315L87.3302 58.7142L81.1846 52.219L82.5669 54.4153L88.4477 63.7599L93.5482 71.8652C94.0495 72.6596 94.9746 73.6448 95.0859 74.6052C95.2624 76.1394 95.2889 77.7054 95.3895 79.2448L95.988 88.3264C96.4706 95.6802 96.9537 103.036 97.4375 110.395C97.6458 113.573 97.8547 116.75 98.0642 119.928C100.99 112.471 104.215 105.13 107.834 97.9818C114.437 84.9367 122.368 72.5131 131.986 61.4754C141.357 50.7219 152.328 41.4126 164.605 34.1354C164.923 33.9465 165.383 34.2625 165.253 34.6332C164.47 36.8777 163.687 39.1222 162.903 41.3667L161.681 44.8659C161.58 45.1554 161.385 45.5103 161.349 45.8157C161.28 46.4107 161.676 47.3005 161.812 47.9343C162.839 52.6569 163.535 57.4872 163.538 62.3281C163.547 69.9373 161.651 77.6471 156.281 83.2807C155.95 83.6338 155.477 83.2542 155.543 82.8499C156.162 79.0771 156.648 75.269 156.734 71.4415C156.801 68.4119 156.627 65.3506 155.931 62.3917C155.613 61.0025 155.162 59.6469 154.586 58.3435C154.292 57.6906 153.962 57.0546 153.597 56.4385C153.467 56.2508 153.381 56.0368 153.343 55.8118C153.276 55.3086 153.355 54.7401 153.36 54.2335L153.39 51.5676C153.401 50.6954 153.411 49.8221 153.42 48.9476L146.306 55.3739C148.742 59.408 150.642 63.8376 151.099 68.5655C151.465 72.5181 150.743 76.4954 149.012 80.0675C148.48 81.1724 147.87 82.2379 147.187 83.256C146.592 84.1493 145.841 84.8184 145.022 85.5087C143.54 86.7727 141.912 87.856 140.174 88.736C133.358 92.1275 125.8 91.1494 118.967 88.3705C113.223 95.6602 108.687 103.976 107.042 113.175C114.776 112.238 122.449 110.723 129.894 108.409C142.28 104.57 153.97 98.439 163.621 89.7176Z" fill="white"/>
</svg>
