<svg width="48" height="32" viewBox="0 0 48 32" fill="none" xmlns="http://www.w3.org/2000/svg">
<path d="M45.757 10.881L45.5681 3.37778L45.403 0L42.4061 1.56685C40.649 2.48534 39.0959 3.37293 37.6592 4.28082C34.6001 6.21312 32.098 8.21384 30.0174 10.3968C28.4367 12.0442 27.0621 13.8776 25.9237 15.8566L24.6565 14.517L23.4031 13.1929L22.6346 12.3808L19.6678 9.3636L16.6585 18.8601C16.3054 18.6041 16.2948 18.6155 15.9214 18.3829C14.6737 17.6134 13.3518 16.9712 11.9756 16.4661C9.5556 15.5675 6.7357 14.9535 3.35439 14.5894L0 14.2284C0.170368 14.8951 0.356626 15.5744 0.558772 16.2661C1.0968 18.0996 1.69441 19.8103 2.31982 21.3948L1.2963 22.0172C1.45326 22.5903 1.65288 23.151 1.89347 23.6944C3.34998 26.9817 5.97611 28.8711 7.6127 29.8205L7.70097 29.8713L7.7941 29.9154C9.91266 30.871 12.2404 31.3556 14.7116 31.3556C16.4595 31.3556 18.3198 31.112 20.2451 30.6318L23.5174 32L26.9724 30.3789C29.0577 30.2013 31.1173 29.796 33.1145 29.1704C34.1676 28.8398 35.8412 28.3058 37.781 27.2328C39.4366 26.317 42.2362 24.7285 44.4655 21.5074C46.4075 18.702 46.9849 16.004 47.3234 14.3413C47.6743 12.6158 47.8175 10.8544 47.7497 9.09481L45.757 10.881Z" fill="#202824"/>
<path d="M3.12305 16.7397C8.84493 17.3576 14.0791 18.8093 17.8868 22.7119L20.4317 16.4445L19.4572 21.5202L21.8939 29.2278C17.2817 24.16 12.0956 20.5549 5.89307 19.5402L7.21717 21.085C7.60469 23.9464 8.58541 25.8703 10.2842 26.655C9.36486 25.1063 8.70722 23.599 8.96013 22.2378L8.4552 20.987L10.1946 21.6469C9.84154 23.5558 10.256 25.1288 11.8555 26.1801C13.6797 26.9547 15.1587 26.3902 16.4594 25.1345C17.9909 26.0239 19.2082 27.1101 20.0018 28.4616C15.8609 29.5442 12.0616 29.4648 8.68692 27.943C6.55512 26.7279 5.01475 25.1756 4.10509 23.2645C4.69917 23.9044 5.28442 24.5003 5.78802 24.6976L3.12305 16.7397Z" fill="white"/>
<path d="M40.9051 22.4294C41.2008 22.1619 41.5009 21.8909 41.7719 21.5983C42.118 21.224 42.4132 20.784 42.7046 20.3664C43.242 19.5991 43.7183 18.7909 44.1293 17.9491C44.8072 16.5613 45.2584 15.0739 45.4657 13.5433C45.328 13.8722 45.1833 14.1979 45.0222 14.5143C44.8015 14.9495 44.5486 15.3856 44.192 15.7246C44.1763 15.7394 44.1567 15.7494 44.1355 15.7533C44.1144 15.7573 44.0925 15.755 44.0726 15.7468C44.0526 15.7386 44.0355 15.7248 44.0233 15.7071C44.011 15.6893 44.0041 15.6684 44.0035 15.6469L43.9293 14.1295C43.8208 11.9135 43.7123 9.69727 43.6041 7.48072C43.5387 6.14838 43.4736 4.81575 43.4085 3.48282C41.8452 4.30023 40.3066 5.16619 38.8148 6.10851C36.201 7.75967 33.721 9.64872 31.5825 11.8904C29.475 14.0973 27.7426 16.6435 26.5457 19.4555C26.5179 19.5212 26.4163 19.5247 26.3722 19.478L25.5257 18.5829L21.8323 14.6785L20.2959 13.0547L20.6415 13.6038L22.1117 15.94L23.3868 17.9663C23.5121 18.1649 23.7434 18.4112 23.7712 18.6513C23.8154 19.0348 23.822 19.4263 23.8471 19.8112L23.9968 22.0816C24.1174 23.92 24.2382 25.7591 24.3591 27.5987C24.4112 28.3931 24.4634 29.1876 24.5158 29.9821C25.2472 28.1177 26.0535 26.2825 26.9583 24.4954C28.609 21.2342 30.5917 18.1283 32.9962 15.3688C35.339 12.6805 38.0817 10.3531 41.1509 8.53382C41.2304 8.4866 41.3456 8.5656 41.3129 8.65829C41.1172 9.21941 40.9214 9.78054 40.7255 10.3417L40.42 11.2165C40.3949 11.2888 40.3459 11.3776 40.3371 11.4539C40.3198 11.6026 40.4187 11.8251 40.4527 11.9835C40.7096 13.1642 40.8835 14.3718 40.8844 15.582C40.8866 17.4843 40.4125 19.4118 39.0699 20.8202C38.9874 20.9084 38.8691 20.8135 38.8854 20.7125C39.0403 19.7693 39.1617 18.8172 39.1833 17.8604C39.2001 17.103 39.1564 16.3376 38.9825 15.5979C38.9029 15.2506 38.7903 14.9117 38.6462 14.5858C38.5727 14.4226 38.4902 14.2636 38.399 14.1096C38.3666 14.0627 38.3449 14.0092 38.3355 13.9529C38.3187 13.8271 38.3385 13.685 38.3399 13.5583L38.3474 12.8919C38.35 12.6738 38.3525 12.4555 38.3549 12.2369L36.5762 13.8435C37.1853 14.852 37.6602 15.9594 37.7745 17.1414C37.8659 18.1295 37.6855 19.1238 37.2528 20.0169C37.1198 20.2931 36.9673 20.5595 36.7964 20.814C36.6477 21.0373 36.4601 21.2046 36.2553 21.3772C35.8847 21.6931 35.4778 21.964 35.0433 22.184C33.3392 23.0319 31.4497 22.7873 29.7416 22.0926C28.3054 23.915 27.1715 25.9939 26.7602 28.2938C28.6938 28.0595 30.612 27.6808 32.4732 27.1021C35.5699 26.1426 38.4921 24.6097 40.9051 22.4294Z" fill="white"/>
<path d="M11.4622 22.1593C12.7659 22.7594 14.0259 23.4503 15.2328 24.2271C14.3576 25.2277 13.3587 25.5547 12.1737 24.8697C11.3523 24.2147 11.1197 23.3095 11.4622 22.1593Z" fill="#65C981"/>
<path d="M34.9514 15.1707C33.4836 16.6918 32.1243 18.3141 30.8838 20.0257C32.6206 20.9305 34.1618 20.8277 35.421 19.2538C36.1978 17.9155 36.0368 16.5654 34.9514 15.1707Z" fill="#65C981"/>
<path d="M3.12305 16.7397C8.84493 17.3576 14.0791 18.8093 17.8868 22.7119L20.4317 16.4445L19.4572 21.5202L21.8939 29.2278C17.2817 24.16 12.0956 20.5549 5.89307 19.5402L7.21717 21.085C7.60469 23.9464 8.58541 25.8703 10.2842 26.655C9.36486 25.1063 8.70722 23.599 8.96013 22.2378L8.4552 20.987L10.1946 21.6469C9.84154 23.5558 10.256 25.1288 11.8555 26.1801C13.6797 26.9547 15.1587 26.3902 16.4594 25.1345C17.9909 26.0239 19.2082 27.1101 20.0018 28.4616C15.8609 29.5442 12.0616 29.4648 8.68692 27.943C6.55512 26.7279 5.01475 25.1756 4.10509 23.2645C4.69917 23.9044 5.28442 24.5003 5.78802 24.6976L3.12305 16.7397Z" fill="white"/>
<path d="M40.9051 22.4294C41.2008 22.1619 41.5009 21.8909 41.7719 21.5983C42.118 21.224 42.4132 20.784 42.7046 20.3664C43.242 19.5991 43.7183 18.7909 44.1293 17.9491C44.8072 16.5613 45.2584 15.0739 45.4657 13.5433C45.328 13.8722 45.1833 14.1979 45.0222 14.5143C44.8015 14.9495 44.5486 15.3856 44.192 15.7246C44.1763 15.7394 44.1567 15.7494 44.1355 15.7533C44.1144 15.7573 44.0925 15.755 44.0726 15.7468C44.0526 15.7386 44.0355 15.7248 44.0233 15.7071C44.011 15.6893 44.0041 15.6684 44.0035 15.6469L43.9293 14.1295C43.8208 11.9135 43.7123 9.69727 43.6041 7.48072C43.5387 6.14838 43.4736 4.81575 43.4085 3.48282C41.8452 4.30023 40.3066 5.16619 38.8148 6.10851C36.201 7.75967 33.721 9.64872 31.5825 11.8904C29.475 14.0973 27.7426 16.6435 26.5457 19.4555C26.5179 19.5212 26.4163 19.5247 26.3722 19.478L25.5257 18.5829L21.8323 14.6785L20.2959 13.0547L20.6415 13.6038L22.1117 15.94L23.3868 17.9663C23.5121 18.1649 23.7434 18.4112 23.7712 18.6513C23.8154 19.0348 23.822 19.4263 23.8471 19.8112L23.9968 22.0816C24.1174 23.92 24.2382 25.7591 24.3591 27.5987C24.4112 28.3931 24.4634 29.1876 24.5158 29.9821C25.2472 28.1177 26.0535 26.2825 26.9583 24.4954C28.609 21.2342 30.5917 18.1283 32.9962 15.3688C35.339 12.6805 38.0817 10.3531 41.1509 8.53382C41.2304 8.4866 41.3456 8.5656 41.3129 8.65829C41.1172 9.21941 40.9214 9.78054 40.7255 10.3417L40.42 11.2165C40.3949 11.2888 40.3459 11.3776 40.3371 11.4539C40.3198 11.6026 40.4187 11.8251 40.4527 11.9835C40.7096 13.1642 40.8835 14.3718 40.8844 15.582C40.8866 17.4843 40.4125 19.4118 39.0699 20.8202C38.9874 20.9084 38.8691 20.8135 38.8854 20.7125C39.0403 19.7693 39.1617 18.8172 39.1833 17.8604C39.2001 17.103 39.1564 16.3376 38.9825 15.5979C38.9029 15.2506 38.7903 14.9117 38.6462 14.5858C38.5727 14.4226 38.4902 14.2636 38.399 14.1096C38.3666 14.0627 38.3449 14.0092 38.3355 13.9529C38.3187 13.8271 38.3385 13.685 38.3399 13.5583L38.3474 12.8919C38.35 12.6738 38.3525 12.4555 38.3549 12.2369L36.5762 13.8435C37.1853 14.852 37.6602 15.9594 37.7745 17.1414C37.8659 18.1295 37.6855 19.1238 37.2528 20.0169C37.1198 20.2931 36.9673 20.5595 36.7964 20.814C36.6477 21.0373 36.4601 21.2046 36.2553 21.3772C35.8847 21.6931 35.4778 21.964 35.0433 22.184C33.3392 23.0319 31.4497 22.7873 29.7416 22.0926C28.3054 23.915 27.1715 25.9939 26.7602 28.2938C28.6938 28.0595 30.612 27.6808 32.4732 27.1021C35.5699 26.1426 38.4921 24.6097 40.9051 22.4294Z" fill="white"/>
</svg>
