<svg width="96" height="64" viewBox="0 0 96 64" fill="none" xmlns="http://www.w3.org/2000/svg">
<path d="M91.5139 21.762L91.1361 6.75556L90.806 0L84.8122 3.13371C81.2981 4.97068 78.1917 6.74585 75.3184 8.56164C69.2002 12.4262 64.196 16.4277 60.0348 20.7937C56.8735 24.0885 54.1242 27.7551 51.8474 31.7131L49.3131 29.034L46.8061 26.3858L45.2693 24.7616L39.3355 18.7272L33.317 37.7201C32.6109 37.2081 32.5897 37.2311 31.8429 36.7659C29.3474 35.2268 26.7036 33.9425 23.9512 32.9322C19.1112 31.1349 13.4714 29.907 6.70878 29.1788L0 28.4567C0.340735 29.7902 0.713252 31.1487 1.11754 32.5323C2.1936 36.1992 3.38881 39.6206 4.63965 42.7897L2.59259 44.0343C2.90653 45.1807 3.30576 46.3019 3.78693 47.3887C6.69996 53.9633 11.9522 57.7423 15.2254 59.6411L15.4019 59.7426L15.5882 59.8308C19.8253 61.742 24.4809 62.7112 29.4233 62.7112C32.9189 62.7112 36.6397 62.2239 40.4901 61.2635L47.0347 64L53.9448 60.7577C58.1154 60.4025 62.2346 59.5921 66.2289 58.3408C68.3351 57.6796 71.6824 56.6115 75.5621 54.4656C78.8732 52.6339 84.4724 49.457 88.9311 43.0148C92.8151 37.4041 93.9697 32.0079 94.6468 28.6827C95.3486 25.2315 95.6349 21.7088 95.4995 18.1896L91.5139 21.762Z" fill="#202824"/>
<path d="M6.24609 33.4795C17.6899 34.7153 28.1582 37.6186 35.7736 45.4237L40.8634 32.8889L38.9143 43.0404L43.7879 58.4555C34.5633 48.32 24.1912 41.1098 11.7861 39.0804L14.4343 42.17C15.2094 47.8928 17.1708 51.7406 20.5685 53.3101C18.7297 50.2126 17.4144 47.198 17.9203 44.4757L16.9104 41.974L20.3893 43.2937C19.6831 47.1115 20.512 50.2576 23.711 52.3603C27.3593 53.9095 30.3174 52.7805 32.9188 50.2691C35.9819 52.0478 38.4165 54.2202 40.0036 56.9231C31.7218 59.0885 24.1232 58.9296 17.3738 55.8859C13.1102 53.4557 10.0295 50.3512 8.21018 46.5289C9.39834 47.8089 10.5688 49.0006 11.576 49.3952L6.24609 33.4795Z" fill="white"/>
<path d="M81.8112 44.8588C82.4026 44.3238 83.0029 43.7818 83.5449 43.1966C84.2369 42.448 84.8275 41.5679 85.4101 40.7329C86.4849 39.1983 87.4376 37.5818 88.2595 35.8981C89.6154 33.1226 90.5178 30.1477 90.9325 27.0867C90.6571 27.7443 90.3675 28.3958 90.0453 29.0287C89.604 29.8991 89.0981 30.7712 88.3849 31.4492C88.3536 31.4788 88.3144 31.4988 88.2721 31.5067C88.2297 31.5146 88.1859 31.51 88.1461 31.4936C88.1062 31.4772 88.072 31.4496 88.0475 31.4141C88.023 31.3787 88.0093 31.3369 88.008 31.2938L87.8597 28.2589C87.6425 23.827 87.4257 19.3945 87.2091 14.9614C87.0784 12.2968 86.9481 9.63149 86.818 6.96564C83.6914 8.60046 80.6142 10.3324 77.6305 12.217C72.403 15.5193 67.4429 19.2974 63.1661 23.7808C58.951 28.1945 55.4863 33.287 53.0923 38.9109C53.0367 39.0424 52.8337 39.0495 52.7454 38.9559L51.0523 37.1657L43.6656 29.3571L40.5928 26.1095L41.284 27.2076L44.2243 31.8799L46.7746 35.9326C47.0253 36.3298 47.4878 36.8224 47.5434 37.3026C47.6317 38.0697 47.6449 38.8526 47.6953 39.6224L47.9945 44.1632C48.2358 47.8401 48.4774 51.5181 48.7192 55.1974C48.8234 56.7863 48.9278 58.3752 49.0326 59.9641C50.4953 56.2354 52.108 52.565 53.9176 48.9908C57.2191 42.4683 61.1843 36.2565 65.9935 30.7377C70.679 25.3609 76.1643 20.7063 82.3029 17.0676C82.4617 16.9732 82.6921 17.1312 82.6268 17.3166C82.2355 18.4388 81.8438 19.5611 81.4519 20.6833L80.841 22.4329C80.7907 22.5777 80.6927 22.7551 80.6751 22.9078C80.6407 23.2053 80.8384 23.6502 80.9064 23.9671C81.4201 26.3284 81.7679 28.7436 81.7697 31.164C81.7741 34.9686 80.826 38.8235 78.1408 41.6403C77.9757 41.8169 77.7391 41.6271 77.7718 41.4249C78.0816 39.5385 78.3244 37.6345 78.3676 35.7207C78.4012 34.2059 78.3138 32.6753 77.966 31.1958C77.8068 30.5012 77.5815 29.8234 77.2933 29.1717C77.1464 28.8453 76.9814 28.5273 76.799 28.2192C76.7341 28.1254 76.6907 28.0184 76.6719 27.9059C76.6384 27.6543 76.6781 27.37 76.6807 27.1167L76.6957 25.7838C76.701 25.3477 76.706 24.911 76.7107 24.4738L73.1533 27.6869C74.3715 29.704 75.3213 31.9188 75.5499 34.2827C75.7329 36.259 75.3721 38.2477 74.5065 40.0337C74.2406 40.5862 73.9356 41.1189 73.5938 41.628C73.2963 42.0746 72.9212 42.4092 72.5116 42.7543C71.7703 43.3863 70.9566 43.928 70.0876 44.368C66.6793 46.0637 62.9004 45.5747 59.4842 44.1852C56.6118 47.8301 54.344 51.9877 53.5213 56.5877C57.3886 56.1189 61.2249 55.3615 64.9474 54.2043C71.1407 52.2852 76.9853 49.2195 81.8112 44.8588Z" fill="white"/>
<path d="M22.9234 44.3185C25.5309 45.5187 28.0509 46.9007 30.4646 48.4542C28.7141 50.4553 26.7165 51.1094 24.3464 49.7394C22.7036 48.4294 22.2384 46.6189 22.9234 44.3185Z" fill="#65C981"/>
<path d="M69.9019 30.3413C66.9661 33.3836 64.2477 36.6282 61.7666 40.0514C65.2402 41.861 68.3227 41.6553 70.8411 38.5075C72.3947 35.8311 72.0725 33.1308 69.9019 30.3413Z" fill="#65C981"/>
<path d="M6.24609 33.4795C17.6899 34.7153 28.1582 37.6186 35.7736 45.4237L40.8634 32.8889L38.9143 43.0404L43.7879 58.4555C34.5633 48.32 24.1912 41.1098 11.7861 39.0804L14.4343 42.17C15.2094 47.8928 17.1708 51.7406 20.5685 53.3101C18.7297 50.2126 17.4144 47.198 17.9203 44.4757L16.9104 41.974L20.3893 43.2937C19.6831 47.1115 20.512 50.2576 23.711 52.3603C27.3593 53.9095 30.3174 52.7805 32.9188 50.2691C35.9819 52.0478 38.4165 54.2202 40.0036 56.9231C31.7218 59.0885 24.1232 58.9296 17.3738 55.8859C13.1102 53.4557 10.0295 50.3512 8.21018 46.5289C9.39834 47.8089 10.5688 49.0006 11.576 49.3952L6.24609 33.4795Z" fill="white"/>
<path d="M81.8112 44.8588C82.4026 44.3238 83.0029 43.7818 83.5449 43.1966C84.2369 42.448 84.8275 41.5679 85.4101 40.7329C86.4849 39.1983 87.4376 37.5818 88.2595 35.8981C89.6154 33.1226 90.5178 30.1477 90.9325 27.0867C90.6571 27.7443 90.3675 28.3958 90.0453 29.0287C89.604 29.8991 89.0981 30.7712 88.3849 31.4492C88.3536 31.4788 88.3144 31.4988 88.2721 31.5067C88.2297 31.5146 88.1859 31.51 88.1461 31.4936C88.1062 31.4772 88.072 31.4496 88.0475 31.4141C88.023 31.3787 88.0093 31.3369 88.008 31.2938L87.8597 28.2589C87.6425 23.827 87.4257 19.3945 87.2091 14.9614C87.0784 12.2968 86.9481 9.63149 86.818 6.96564C83.6914 8.60046 80.6142 10.3324 77.6305 12.217C72.403 15.5193 67.4429 19.2974 63.1661 23.7808C58.951 28.1945 55.4863 33.287 53.0923 38.9109C53.0367 39.0424 52.8337 39.0495 52.7454 38.9559L51.0523 37.1657L43.6656 29.3571L40.5928 26.1095L41.284 27.2076L44.2243 31.8799L46.7746 35.9326C47.0253 36.3298 47.4878 36.8224 47.5434 37.3026C47.6317 38.0697 47.6449 38.8526 47.6953 39.6224L47.9945 44.1632C48.2358 47.8401 48.4774 51.5181 48.7192 55.1974C48.8234 56.7863 48.9278 58.3752 49.0326 59.9641C50.4953 56.2354 52.108 52.565 53.9176 48.9908C57.2191 42.4683 61.1843 36.2565 65.9935 30.7377C70.679 25.3609 76.1643 20.7063 82.3029 17.0676C82.4617 16.9732 82.6921 17.1312 82.6268 17.3166C82.2355 18.4388 81.8438 19.5611 81.4519 20.6833L80.841 22.4329C80.7907 22.5777 80.6927 22.7551 80.6751 22.9078C80.6407 23.2053 80.8384 23.6502 80.9064 23.9671C81.4201 26.3284 81.7679 28.7436 81.7697 31.164C81.7741 34.9686 80.826 38.8235 78.1408 41.6403C77.9757 41.8169 77.7391 41.6271 77.7718 41.4249C78.0816 39.5385 78.3244 37.6345 78.3676 35.7207C78.4012 34.2059 78.3138 32.6753 77.966 31.1958C77.8068 30.5012 77.5815 29.8234 77.2933 29.1717C77.1464 28.8453 76.9814 28.5273 76.799 28.2192C76.7341 28.1254 76.6907 28.0184 76.6719 27.9059C76.6384 27.6543 76.6781 27.37 76.6807 27.1167L76.6957 25.7838C76.701 25.3477 76.706 24.911 76.7107 24.4738L73.1533 27.6869C74.3715 29.704 75.3213 31.9188 75.5499 34.2827C75.7329 36.259 75.3721 38.2477 74.5065 40.0337C74.2406 40.5862 73.9356 41.1189 73.5938 41.628C73.2963 42.0746 72.9212 42.4092 72.5116 42.7543C71.7703 43.3863 70.9566 43.928 70.0876 44.368C66.6793 46.0637 62.9004 45.5747 59.4842 44.1852C56.6118 47.8301 54.344 51.9877 53.5213 56.5877C57.3886 56.1189 61.2249 55.3615 64.9474 54.2043C71.1407 52.2852 76.9853 49.2195 81.8112 44.8588Z" fill="white"/>
</svg>
